# xmcd
#
# Track frame offsets:
#	150
#	12109
#	24047
#	35579
#	48376
#	61307
#	74035
#	89683
#	102171
#	115866
#	127697
#	137842
#	152233
#	164247
#	176733
#	186396
#
# Disc length: 2634 seconds
#
# Revision: 1
# Processed by: cddbd v1.5.2PL0 Copyright (c) Steve Scherf et al.
# Submitted via: audiograbber 1.83.01
#
DISCID=e00a4810
DTITLE=sampler - Golden Age Of Country
DYEAR=1900
DGENRE=
TTITLE0=Right Or Wrong - Wanda Jackson
TTITLE1=You're The Reason - Bobby Edwards
TTITLE2=Gonna Find Me A Bluebird - Marvin Painwater
TTITLE3=Next in line - Conway Twitty
TTITLE4=Makin' Believe - Kitty Wells
TTITLE5=Old Rivers - Walter Brennan
TTITLE6=Mama Sang A Song - Bill Anderson
TTITLE7=Don't Let The Stars Get In Your Eyes - Skeets Mcdonalds
TTITLE8=I Forgot More Than You'll Ever Know - The Davis Sisters
TTITLE9=Yes Mrs. Peters - Roy Drusky and Priscilla Mitchel
TTITLE10=Slippin' Around - Margaret Whiting and Jimmy Wakely
TTITLE11=I Dreamed Of Hill-Billy Heaven - Tex Ritter
TTITLE12=Walz Across Texas - Ernest Tubb
TTITLE13=Cattle Call - Eddy Arnold
TTITLE14=Blue Moon Of Kentucky - Bill Monroe
TTITLE15=May The Bird Of Paradise Fly Up Nose - Little 'Jimmy' Dicken
EXTD=
EXTT0=
EXTT1=
EXTT2=
EXTT3=
EXTT4=
EXTT5=
EXTT6=
EXTT7=
EXTT8=
EXTT9=
EXTT10=
EXTT11=
EXTT12=
EXTT13=
EXTT14=
EXTT15=
PLAYORDER=
